<svg width="500" height="500" viewBox="0 0 500 500" fill="none" xmlns="http://www.w3.org/2000/svg">
<path d="M201.142 90.1898C205.589 89.5868 210.993 90.536 214.518 93.4591C216.164 94.8324 217.444 96.5919 218.245 98.5804C219.987 102.791 221.22 116.396 221.752 121.561C225.063 120.422 228.405 119.377 231.776 118.427C264.426 109.27 300.278 112.673 329.929 129.301C375.23 109.699 442.695 150.067 421.76 203.82C416.145 218.238 410.366 229.094 412.3 245.632C412.727 249.273 414.075 258.789 413.23 261.743C412.507 264.275 410.789 266.406 408.467 267.647C404.68 269.634 399.834 268.745 395.925 267.429C377.136 261.109 361.736 241.642 352.791 224.607C345.32 210.046 340.235 193.845 339.624 177.415C339.424 172.014 339.143 165.021 344.849 162.289C346.924 161.318 349.312 161.261 351.433 162.13C356.787 164.322 357.061 169.401 357.236 174.322C357.319 176.624 357.605 179.143 357.891 181.436C359.27 193.273 362.373 204.845 367.105 215.782C373.103 229.567 383.928 245.625 398.403 251.279C397.471 240.31 398.157 230.723 400.379 219.884C401.655 213.89 403.106 207.933 404.722 202.021C405.576 198.812 407.2 193.765 407.659 190.62C408.958 181.716 407.051 171.849 402.683 164.03C396.026 152.115 382.442 144.648 369.653 141.153C360.427 139.017 350.322 137.481 341.099 140.36C337.586 141.456 331.946 146.134 328.779 145.454C325.855 144.827 321.941 141.199 319.08 139.681C312.395 136.135 305.935 133.746 298.687 131.732C273.301 125.675 246.77 126.697 222.598 137.299C210.482 142.614 208.432 133.109 207.032 123.714C206.557 120.564 206.139 117.407 205.777 114.243C205.526 112.161 205.237 106.555 202.756 106.016C198.929 105.185 193.093 107.044 189.532 108.42C177.45 113.089 166.011 119.337 154.269 124.777C143.682 129.772 133 134.364 122.556 139.585C114.444 143.64 106.019 150.34 104.244 159.752C103.492 163.742 105.303 170.106 106.214 174.196C110.242 192.296 114.047 207.371 108.488 225.707C132.183 216 152.57 186.42 164.448 164.751C168.792 157.09 172.124 149.619 176.813 142.114C180.385 136.396 188.309 136.931 189.914 143.657C190.517 146.184 188.268 151.353 187.315 153.92C181.509 169.553 173.286 184.607 163.398 198.036C149.321 217.015 128.018 237.777 103.76 241.956C100.747 242.475 97.1874 242.194 94.7599 240.118C87.8666 234.222 93.3876 228.112 95.4489 221.553C96.7675 217.358 97.9291 213.086 98.0649 208.738C98.2016 197.796 94.3205 186.08 90.9594 175.687C86.4213 161.656 85.6122 151.417 95.8305 139.274C99.3197 135.199 103.483 131.753 108.139 129.088C117.453 123.666 129.949 119.498 139.921 114.841C148.733 110.725 157.405 106.568 166.18 102.375C177.307 97.0575 188.698 91.2421 201.142 90.1898Z" fill="#653A47"/>
<path d="M304.416 195.41C314.892 194.237 327.058 200.561 331.892 209.994C333.735 213.594 333.269 217.979 329.177 219.685C323.855 221.903 320.95 216.198 317.556 213.32C315.544 211.614 314.089 210.833 311.636 209.834C305.271 207.94 298.203 208.95 292.973 213.369C289.595 216.225 283.098 220.863 281.096 213.119C280.61 211.243 281.88 208.165 283.132 206.622C288.625 199.86 295.825 196.341 304.416 195.41Z" fill="#653A47"/>
<path d="M184.713 187.049C196.732 186.357 204.519 207.907 191.478 211.628C178.745 212.557 172.218 190.863 184.713 187.049Z" fill="#653A47"/>
<path d="M223.235 234.488C229.621 234.27 236.829 235.04 243.121 236.374C250.74 237.99 260.848 241.12 265.401 248.032C267.256 250.85 268.108 254.805 267.175 258.11C263.926 269.597 249.241 275.432 239.94 281.233C237.866 282.526 234.477 284.412 233.999 286.836C233.234 290.708 234.572 294.965 236.564 298.2C240.458 304.524 247.637 308.298 254.602 310.002C276.895 315.454 296.523 304.069 309.924 286.848C312.468 283.579 314.353 278.933 317.502 276.885C318.901 276.101 320.92 275.91 322.405 276.457C328.726 278.784 327.215 284.993 325.025 289.688C321.707 296.811 317.254 302.756 312.125 308.615C300.486 321.906 284.651 332.793 277.151 349.155C277.127 349.241 277.102 349.326 277.078 349.411C307.312 329.895 352.19 319.199 360.554 278.34C361.182 275.278 360.71 271.132 362.605 268.625C363.608 267.28 365.134 266.423 366.804 266.267C368.403 266.108 369.993 266.651 371.165 267.749C377.387 273.499 370.811 292.214 367.774 298.479C354.717 325.407 326.26 336.948 301.685 350.754C292.711 355.795 282.844 361.413 275.818 369.113C268.098 378.356 266.929 385.676 265.728 397.453C263.775 416.626 262.038 435.136 246.873 449.045C236.446 458.518 222.691 463.469 208.62 462.817C194.735 462.153 181.697 455.947 172.427 445.591C159.553 431.138 155.087 412.727 156.223 393.767C158.172 363.681 171.876 335.568 194.375 315.5C186.699 317.461 178.707 318.296 170.868 316.804C159.809 314.677 150.075 308.181 143.868 298.786C137.165 288.835 134.387 275.573 136.715 263.781C137.569 260.124 138.858 254.145 142.094 251.848C145.219 249.631 150.79 251.785 151.273 255.713C151.612 258.472 150.373 261.438 149.917 264.18C148.445 273.047 148.986 281.741 153.574 289.651C157.433 296.408 163.879 301.299 171.425 303.198C183.304 306.233 195.957 302.104 205.5 294.89C209.826 291.621 214.602 287.585 215.987 282.116C212.003 279.043 208.723 277.537 204.545 273.638C198.696 268.377 192.49 260.434 192.175 252.16C191.584 236.636 212.383 234.883 223.235 234.488ZM221.008 307.803C195.757 325.923 179.655 347.661 174.539 378.77C171.703 396.008 171.754 417.078 182.286 431.86C188.116 440.046 196.608 445.647 206.634 447.15C215.138 448.386 223.784 446.203 230.683 441.081C240.847 433.576 244.797 422.105 246.501 410.078C248.577 395.425 248.598 378.552 252.988 364.387C257.075 349.131 265.706 335.478 277.732 325.241C273.782 324.814 270.549 325.439 266.633 325.515C258.384 325.676 251.311 324.241 243.476 321.817C225.847 341.05 216.155 365.29 213.338 391.462C212.243 401.638 201.932 400.227 202.276 389.78C203.172 362.559 214.827 337.256 232.178 316.67C229.019 314.436 225.982 312.368 223.23 309.644C222.813 309.229 221.449 307.925 221.008 307.803Z" fill="#653A47"/>
</svg>
